<svg xmlns="http://www.w3.org/2000/svg" version="1.1" xmlns:xlink="http://www.w3.org/1999/xlink" width="1000" height="1000"><metadata><rdf:RDF xmlns:rdf="http://www.w3.org/1999/02/22-rdf-syntax-ns#" xmlns:dc="http://purl.org/dc/elements/1.1/"><rdf:Description><dc:creator>RealFaviconGenerator</dc:creator><dc:source>https://realfavicongenerator.net</dc:source></rdf:Description></rdf:RDF></metadata><style>
    #light-icon {
      display: inline;
    }
    #dark-icon {
      display: none;
    }

    @media (prefers-color-scheme: dark) {
      #light-icon {
        display: none;
      }
      #dark-icon {
        display: inline;
      }
    }
  </style><g id="light-icon"><svg xmlns="http://www.w3.org/2000/svg" version="1.1" xmlns:xlink="http://www.w3.org/1999/xlink" width="1000" height="1000"><g clip-path="url(#SvgjsClipPath1076)"><rect width="1000" height="1000" fill="#ffffff"></rect><g transform="matrix(1.458252597785862,0,0,1.458252597785862,100,320.76927928417297)"><svg xmlns="http://www.w3.org/2000/svg" version="1.1" viewBox="0 0 548.6018 245.81574" id="svg1" xml:space="preserve" sodipodi:docname="logo_abc_colorsSymbolSVG.svg" inkscape:version="1.4.2 (f4327f4, 2025-05-13)" xmlns:inkscape="http://www.inkscape.org/namespaces/inkscape" xmlns:sodipodi="http://sodipodi.sourceforge.net/DTD/sodipodi-0.dtd" xmlns:svg="http://www.w3.org/2000/svg" width="548.6018" height="245.81574"><sodipodi:namedview id="namedview1" pagecolor="#ffffff" bordercolor="#000000" borderopacity="0.25" inkscape:showpageshadow="2" inkscape:pageopacity="0.0" inkscape:pagecheckerboard="0" inkscape:deskcolor="#d1d1d1" inkscape:zoom="0.54418157" inkscape:cx="874.70805" inkscape:cy="467.67479" inkscape:current-layer="svg1"></sodipodi:namedview><defs id="defs1"><clipPath id="SvgjsClipPath1076"><rect width="1000" height="1000" x="0" y="0" rx="350" ry="350"></rect></clipPath></defs><g id="layer1" transform="matrix(1.1277878,0,0,1.1277878,-159.0717,-170.84996)"><path id="path2" style="display:inline;opacity:1;fill:#0a3956;fill-opacity:1" d="m 583.82224,179.60867 c -0.0237,0.006 -0.0475,0.0121 -0.0713,0.0181 0.0413,0.0471 0.0827,0.0939 0.12402,0.14056 -0.0179,-0.0527 -0.0354,-0.10566 -0.0527,-0.15865 z m -260.35413,9.66298 2.97295,3.94498 c 1.63515,2.16973 3.92626,5.77571 5.09167,8.01295 2.19553,4.21474 4.48357,7.0893 6.64249,8.34574 0.87883,0.51145 9.91886,0.83012 30.35164,1.0697 33.72883,0.39548 33.60028,0.37609 39.17383,5.91592 2.52934,2.51405 3.35588,3.86197 3.98994,6.50503 2.01175,8.38592 -1.43336,15.40616 -9.371,19.09599 -2.71614,1.26261 -3.99317,1.32033 -35.98334,1.62213 l -33.16748,0.31264 -0.16226,40.0513 c -0.0892,22.02821 -0.0275,40.40344 0.13694,40.83368 0.46472,1.21588 64.72458,1.08664 73.24411,-0.14727 16.32679,-2.36466 26.73589,-7.73096 33.09823,-17.06305 7.68798,-11.27651 8.62523,-27.17451 2.36989,-40.20684 -2.40194,-5.0042 -8.75619,-11.1158 -14.38569,-13.83637 l -4.57543,-2.21123 2.3952,-1.65985 c 6.38198,-4.42272 10.17669,-10.22314 11.85561,-18.12241 1.65064,-7.76617 0.1151,-17.85476 -3.71089,-24.38146 -4.09784,-6.99043 -13.43853,-13.17918 -24.54372,-16.26205 -4.89093,-1.35775 -5.93408,-1.39474 -45.21481,-1.60456 z m 209.80063,0.21394 -28.00449,0.22686 -6.25802,1.69137 c -14.95828,4.04268 -26.50859,12.1099 -34.78134,24.29206 -12.88305,18.97113 -14.67718,47.34061 -4.32893,68.45215 5.48077,11.18135 12.80161,19.04844 22.56606,24.24968 2.4231,1.29071 4.64565,2.34715 4.93872,2.34715 0.84878,0 12.74357,-4.22087 19.66443,-6.97787 8.19559,-3.26479 20.66802,-9.62871 26.87071,-13.71028 5.13008,-3.37577 6.07436,-4.70855 1.78594,-2.52077 -5.40478,2.75732 -11.85969,4.09441 -19.81894,4.10621 -8.24068,0.0122 -11.29375,-0.70874 -18.14153,-4.28501 -15.46822,-8.07831 -22.41381,-31.90525 -14.89057,-51.08267 3.66173,-9.33407 9.7971,-16.02357 18.65571,-20.33985 7.16274,-3.48998 11.31516,-4.1668 28.45666,-4.63899 14.91452,-0.41084 15.41763,-0.46663 18.46141,-2.05672 3.45132,-1.80299 5.62842,-3.90824 7.96075,-7.69669 1.62236,-2.6352 4.86792,-10.3476 4.86792,-11.56777 0,-0.53024 -7.26645,-0.65711 -28.00449,-0.48886 z m -298.30789,0.1664 -24.86463,57.8869 c -13.67544,31.83765 -25.05481,58.8225 -25.28786,59.96637 -0.36671,1.7999 -0.13962,2.37677 1.68827,4.28708 2.74626,2.87009 7.86063,6.34653 13.54336,9.20615 l 4.54752,2.28875 0.64286,-1.69137 c 1.61079,-4.2367 8.31243,-20.0828 9.36945,-22.15472 2.18899,-4.29078 6.19424,-6.78333 13.07724,-8.13748 4.74625,-0.93376 9.4649,-0.1532 18.98282,3.13934 3.86761,1.33793 16.00481,5.53744 26.97148,9.33276 10.96667,3.79532 20.11666,7.07767 20.33312,7.29413 0.21645,0.21645 1.52232,2.6963 2.90215,5.51026 2.71972,5.54646 4.12713,6.76074 9.571,8.25944 4.06185,1.11824 21.67404,1.23619 21.22454,0.14211 -0.41402,-1.0077 -10.75651,-24.49677 -17.01498,-38.64312 -4.48894,-10.14658 -7.61157,-17.23295 -22.05912,-50.06412 -2.95353,-6.71172 -8.79837,-19.94744 -12.98887,-29.41268 l -7.61918,-17.2098 h -16.50958 z m 16.52354,30.66738 c 1.44801,-0.0105 2.88687,0.40929 3.71605,1.26297 0.66104,0.68056 1.96078,3.06786 2.8882,5.3051 1.76008,4.24591 20.29828,47.19881 27.45414,63.61111 2.27314,5.21353 4.13308,9.64876 4.13308,9.85624 0,0.88456 -1.38571,-0.0503 -9.46764,-6.38875 -4.69068,-3.6788 -17.29263,-13.41192 -28.00449,-21.62918 -10.71185,-8.21725 -19.47582,-15.1815 -19.47582,-15.47605 0,-0.29455 1.11416,-3.28695 2.47634,-6.64973 7.99942,-19.74789 11.36124,-27.42641 12.50931,-28.57448 0.86595,-0.86596 2.32282,-1.30675 3.77083,-1.31723 z m 107.02964,44.11617 h 20.93309 c 13.00724,0 22.18962,0.26422 24.2502,0.69815 10.56916,2.2257 16.77055,9.25709 16.77055,19.01434 0,9.40118 -5.61066,16.07065 -15.86414,18.85776 -3.2526,0.88413 -35.47359,1.68781 -42.80463,1.06764 l -3.28507,-0.27802 v -19.67994 z m -163.73781,74.94013 c -0.0703,0.0703 -0.11899,0.13146 -0.25528,0.31471 -0.0403,0.0542 0.0905,-0.1006 0.13178,-0.154 0.0414,-0.0535 0.0824,-0.10705 0.1235,-0.16071 z m 203.0765,6.83265 c -0.24659,0.0328 -0.49309,0.0657 -0.74001,0.0982 0.096,0.0126 0.19178,0.0249 0.28784,0.0372 0.15073,-0.0451 0.30146,-0.0901 0.45217,-0.1354 z"></path></g><g id="g3" transform="matrix(1.1277878,0,0,1.1277878,-170.37917,-170.84996)"><path id="path3" style="display:inline;fill:#f69220;fill-opacity:1" d="m 605.69532,151.49123 c -0.002,-2e-5 -0.004,1.7e-4 -0.006,4.6e-4 -0.005,7.4e-4 -0.01,0.003 -0.0142,0.006 -0.23454,0.14495 -0.77184,2.0303 -1.1941,4.18987 -1.29236,6.60945 -4.36181,15.35372 -6.12536,17.44958 -2.32647,2.76486 -6.6179,4.58441 -16.26556,6.89653 l -8.28444,1.98497 9.36124,2.35245 c 5.14853,1.29353 10.56581,3.01119 12.03856,3.81689 3.94098,2.156 5.66393,6.04779 9.92943,22.42895 l 0.73359,2.81571 1.77603,-6.96251 c 4.07782,-15.98771 5.5114,-17.81604 16.29717,-20.78168 3.90983,-1.07504 8.60683,-2.26991 10.43758,-2.65488 1.83075,-0.38497 3.23892,-0.78337 3.12912,-0.88526 -0.1098,-0.10189 -4.14209,-1.21924 -8.96076,-2.48258 -4.81867,-1.26333 -9.91883,-2.80844 -11.33293,-3.43384 -4.606,-2.03707 -6.5909,-5.92177 -9.67465,-18.93051 -0.76955,-3.24636 -1.58463,-5.80675 -1.8443,-5.81011 z m -282.22703,37.78038 0.29555,0.39223 c 0.17536,-0.12677 0.35364,-0.25587 0.53473,-0.38765 z m 281.65335,33.54789 -1.89195,4.9528 c -1.04034,2.72395 -3.2988,7.74326 -5.01878,11.15468 -14.66623,29.08905 -41.45063,53.47135 -79.49221,72.36291 -44.54132,22.11937 -98.71731,35.08396 -162.39534,38.86221 -13.79806,0.819 -49.17489,0.82325 -61.96519,0.005 -58.90562,-3.76122 -99.71186,-15.53166 -116.85745,-33.70689 -7.06976,-7.49431 -10.17619,-16.46347 -8.59832,-24.82585 1.40474,-7.44485 5.37646,-14.31728 12.76712,-22.09033 l 3.18411,-3.34906 -3.12866,1.56479 c -6.08868,3.04456 -14.86574,9.30242 -18.98367,13.53554 -13.23086,13.601 -15.31686,29.7202 -5.7061,44.08948 10.57865,15.8164 35.97618,28.49509 72.14939,36.01765 19.61109,4.07831 35.41288,5.9426 65.81049,7.76437 8.22857,0.49315 45.22584,0.34148 55.1571,-0.22589 116.12421,-6.63416 200.37725,-39.81365 237.535,-93.54415 9.93178,-14.36145 16.14069,-31.28851 17.06697,-46.52671 z"></path></g></svg></g></g></svg></g><g id="dark-icon"><svg xmlns="http://www.w3.org/2000/svg" version="1.1" xmlns:xlink="http://www.w3.org/1999/xlink" width="1000" height="1000"><g clip-path="url(#SvgjsClipPath1077)"><rect width="1000" height="1000" fill="#ffffff"></rect><g transform="matrix(1.458252597785862,0,0,1.458252597785862,100,320.76927928417297)"><svg xmlns="http://www.w3.org/2000/svg" version="1.1" viewBox="0 0 548.6018 245.81574" id="svg1" xml:space="preserve" sodipodi:docname="logo_abc_colorsSymbolSVG.svg" inkscape:version="1.4.2 (f4327f4, 2025-05-13)" xmlns:inkscape="http://www.inkscape.org/namespaces/inkscape" xmlns:sodipodi="http://sodipodi.sourceforge.net/DTD/sodipodi-0.dtd" xmlns:svg="http://www.w3.org/2000/svg" width="548.6018" height="245.81574"><sodipodi:namedview id="namedview1" pagecolor="#ffffff" bordercolor="#000000" borderopacity="0.25" inkscape:showpageshadow="2" inkscape:pageopacity="0.0" inkscape:pagecheckerboard="0" inkscape:deskcolor="#d1d1d1" inkscape:zoom="0.54418157" inkscape:cx="874.70805" inkscape:cy="467.67479" inkscape:current-layer="svg1"></sodipodi:namedview><defs id="defs1"><clipPath id="SvgjsClipPath1077"><rect width="1000" height="1000" x="0" y="0" rx="350" ry="350"></rect></clipPath></defs><g id="layer1" transform="matrix(1.1277878,0,0,1.1277878,-159.0717,-170.84996)"><path id="path2" style="display:inline;opacity:1;fill:#0a3956;fill-opacity:1" d="m 583.82224,179.60867 c -0.0237,0.006 -0.0475,0.0121 -0.0713,0.0181 0.0413,0.0471 0.0827,0.0939 0.12402,0.14056 -0.0179,-0.0527 -0.0354,-0.10566 -0.0527,-0.15865 z m -260.35413,9.66298 2.97295,3.94498 c 1.63515,2.16973 3.92626,5.77571 5.09167,8.01295 2.19553,4.21474 4.48357,7.0893 6.64249,8.34574 0.87883,0.51145 9.91886,0.83012 30.35164,1.0697 33.72883,0.39548 33.60028,0.37609 39.17383,5.91592 2.52934,2.51405 3.35588,3.86197 3.98994,6.50503 2.01175,8.38592 -1.43336,15.40616 -9.371,19.09599 -2.71614,1.26261 -3.99317,1.32033 -35.98334,1.62213 l -33.16748,0.31264 -0.16226,40.0513 c -0.0892,22.02821 -0.0275,40.40344 0.13694,40.83368 0.46472,1.21588 64.72458,1.08664 73.24411,-0.14727 16.32679,-2.36466 26.73589,-7.73096 33.09823,-17.06305 7.68798,-11.27651 8.62523,-27.17451 2.36989,-40.20684 -2.40194,-5.0042 -8.75619,-11.1158 -14.38569,-13.83637 l -4.57543,-2.21123 2.3952,-1.65985 c 6.38198,-4.42272 10.17669,-10.22314 11.85561,-18.12241 1.65064,-7.76617 0.1151,-17.85476 -3.71089,-24.38146 -4.09784,-6.99043 -13.43853,-13.17918 -24.54372,-16.26205 -4.89093,-1.35775 -5.93408,-1.39474 -45.21481,-1.60456 z m 209.80063,0.21394 -28.00449,0.22686 -6.25802,1.69137 c -14.95828,4.04268 -26.50859,12.1099 -34.78134,24.29206 -12.88305,18.97113 -14.67718,47.34061 -4.32893,68.45215 5.48077,11.18135 12.80161,19.04844 22.56606,24.24968 2.4231,1.29071 4.64565,2.34715 4.93872,2.34715 0.84878,0 12.74357,-4.22087 19.66443,-6.97787 8.19559,-3.26479 20.66802,-9.62871 26.87071,-13.71028 5.13008,-3.37577 6.07436,-4.70855 1.78594,-2.52077 -5.40478,2.75732 -11.85969,4.09441 -19.81894,4.10621 -8.24068,0.0122 -11.29375,-0.70874 -18.14153,-4.28501 -15.46822,-8.07831 -22.41381,-31.90525 -14.89057,-51.08267 3.66173,-9.33407 9.7971,-16.02357 18.65571,-20.33985 7.16274,-3.48998 11.31516,-4.1668 28.45666,-4.63899 14.91452,-0.41084 15.41763,-0.46663 18.46141,-2.05672 3.45132,-1.80299 5.62842,-3.90824 7.96075,-7.69669 1.62236,-2.6352 4.86792,-10.3476 4.86792,-11.56777 0,-0.53024 -7.26645,-0.65711 -28.00449,-0.48886 z m -298.30789,0.1664 -24.86463,57.8869 c -13.67544,31.83765 -25.05481,58.8225 -25.28786,59.96637 -0.36671,1.7999 -0.13962,2.37677 1.68827,4.28708 2.74626,2.87009 7.86063,6.34653 13.54336,9.20615 l 4.54752,2.28875 0.64286,-1.69137 c 1.61079,-4.2367 8.31243,-20.0828 9.36945,-22.15472 2.18899,-4.29078 6.19424,-6.78333 13.07724,-8.13748 4.74625,-0.93376 9.4649,-0.1532 18.98282,3.13934 3.86761,1.33793 16.00481,5.53744 26.97148,9.33276 10.96667,3.79532 20.11666,7.07767 20.33312,7.29413 0.21645,0.21645 1.52232,2.6963 2.90215,5.51026 2.71972,5.54646 4.12713,6.76074 9.571,8.25944 4.06185,1.11824 21.67404,1.23619 21.22454,0.14211 -0.41402,-1.0077 -10.75651,-24.49677 -17.01498,-38.64312 -4.48894,-10.14658 -7.61157,-17.23295 -22.05912,-50.06412 -2.95353,-6.71172 -8.79837,-19.94744 -12.98887,-29.41268 l -7.61918,-17.2098 h -16.50958 z m 16.52354,30.66738 c 1.44801,-0.0105 2.88687,0.40929 3.71605,1.26297 0.66104,0.68056 1.96078,3.06786 2.8882,5.3051 1.76008,4.24591 20.29828,47.19881 27.45414,63.61111 2.27314,5.21353 4.13308,9.64876 4.13308,9.85624 0,0.88456 -1.38571,-0.0503 -9.46764,-6.38875 -4.69068,-3.6788 -17.29263,-13.41192 -28.00449,-21.62918 -10.71185,-8.21725 -19.47582,-15.1815 -19.47582,-15.47605 0,-0.29455 1.11416,-3.28695 2.47634,-6.64973 7.99942,-19.74789 11.36124,-27.42641 12.50931,-28.57448 0.86595,-0.86596 2.32282,-1.30675 3.77083,-1.31723 z m 107.02964,44.11617 h 20.93309 c 13.00724,0 22.18962,0.26422 24.2502,0.69815 10.56916,2.2257 16.77055,9.25709 16.77055,19.01434 0,9.40118 -5.61066,16.07065 -15.86414,18.85776 -3.2526,0.88413 -35.47359,1.68781 -42.80463,1.06764 l -3.28507,-0.27802 v -19.67994 z m -163.73781,74.94013 c -0.0703,0.0703 -0.11899,0.13146 -0.25528,0.31471 -0.0403,0.0542 0.0905,-0.1006 0.13178,-0.154 0.0414,-0.0535 0.0824,-0.10705 0.1235,-0.16071 z m 203.0765,6.83265 c -0.24659,0.0328 -0.49309,0.0657 -0.74001,0.0982 0.096,0.0126 0.19178,0.0249 0.28784,0.0372 0.15073,-0.0451 0.30146,-0.0901 0.45217,-0.1354 z"></path></g><g id="g3" transform="matrix(1.1277878,0,0,1.1277878,-170.37917,-170.84996)"><path id="path3" style="display:inline;fill:#f69220;fill-opacity:1" d="m 605.69532,151.49123 c -0.002,-2e-5 -0.004,1.7e-4 -0.006,4.6e-4 -0.005,7.4e-4 -0.01,0.003 -0.0142,0.006 -0.23454,0.14495 -0.77184,2.0303 -1.1941,4.18987 -1.29236,6.60945 -4.36181,15.35372 -6.12536,17.44958 -2.32647,2.76486 -6.6179,4.58441 -16.26556,6.89653 l -8.28444,1.98497 9.36124,2.35245 c 5.14853,1.29353 10.56581,3.01119 12.03856,3.81689 3.94098,2.156 5.66393,6.04779 9.92943,22.42895 l 0.73359,2.81571 1.77603,-6.96251 c 4.07782,-15.98771 5.5114,-17.81604 16.29717,-20.78168 3.90983,-1.07504 8.60683,-2.26991 10.43758,-2.65488 1.83075,-0.38497 3.23892,-0.78337 3.12912,-0.88526 -0.1098,-0.10189 -4.14209,-1.21924 -8.96076,-2.48258 -4.81867,-1.26333 -9.91883,-2.80844 -11.33293,-3.43384 -4.606,-2.03707 -6.5909,-5.92177 -9.67465,-18.93051 -0.76955,-3.24636 -1.58463,-5.80675 -1.8443,-5.81011 z m -282.22703,37.78038 0.29555,0.39223 c 0.17536,-0.12677 0.35364,-0.25587 0.53473,-0.38765 z m 281.65335,33.54789 -1.89195,4.9528 c -1.04034,2.72395 -3.2988,7.74326 -5.01878,11.15468 -14.66623,29.08905 -41.45063,53.47135 -79.49221,72.36291 -44.54132,22.11937 -98.71731,35.08396 -162.39534,38.86221 -13.79806,0.819 -49.17489,0.82325 -61.96519,0.005 -58.90562,-3.76122 -99.71186,-15.53166 -116.85745,-33.70689 -7.06976,-7.49431 -10.17619,-16.46347 -8.59832,-24.82585 1.40474,-7.44485 5.37646,-14.31728 12.76712,-22.09033 l 3.18411,-3.34906 -3.12866,1.56479 c -6.08868,3.04456 -14.86574,9.30242 -18.98367,13.53554 -13.23086,13.601 -15.31686,29.7202 -5.7061,44.08948 10.57865,15.8164 35.97618,28.49509 72.14939,36.01765 19.61109,4.07831 35.41288,5.9426 65.81049,7.76437 8.22857,0.49315 45.22584,0.34148 55.1571,-0.22589 116.12421,-6.63416 200.37725,-39.81365 237.535,-93.54415 9.93178,-14.36145 16.14069,-31.28851 17.06697,-46.52671 z"></path></g></svg></g></g></svg></g></svg>