<?xml version="1.0" encoding="UTF-8" standalone="no"?>
<!-- Created with Inkscape (http://www.inkscape.org/) -->

<svg
   viewBox="0 0 548.6018 287.44717"
   version="1.1"
   id="svg1"
   xml:space="preserve"
   xmlns="http://www.w3.org/2000/svg"
   xmlns:svg="http://www.w3.org/2000/svg"><defs
     id="defs1"><rect
       x="366.43356"
       y="425.17484"
       width="939.86017"
       height="427.97202"
       id="rect2" /><rect
       x="394.40558"
       y="483.91608"
       width="1367.8322"
       height="665.73425"
       id="rect1" /></defs><g
     id="g3"
     transform="matrix(1.1277878,0,0,1.1277878,-170.37896,-170.84996)"><path
       id="path2"
       style="display:inline;opacity:1;fill:#ffffff;fill-opacity:1"
       d="m 583.82224,179.60867 c -0.0237,0.006 -0.0475,0.0121 -0.0713,0.0181 0.0413,0.0471 0.0827,0.0939 0.12402,0.14056 -0.0179,-0.0527 -0.0354,-0.10566 -0.0527,-0.15865 z m -260.35413,9.66298 2.97295,3.94498 c 1.63515,2.16973 3.92626,5.77571 5.09167,8.01295 2.19553,4.21474 4.48357,7.0893 6.64249,8.34574 0.87883,0.51145 9.91886,0.83012 30.35164,1.0697 33.72883,0.39548 33.60028,0.37609 39.17383,5.91592 2.52934,2.51405 3.35588,3.86197 3.98994,6.50503 2.01175,8.38592 -1.43336,15.40616 -9.371,19.09599 -2.71614,1.26261 -3.99317,1.32033 -35.98334,1.62213 l -33.16748,0.31264 -0.16226,40.0513 c -0.0892,22.02821 -0.0275,40.40344 0.13694,40.83368 0.46472,1.21588 64.72458,1.08664 73.24411,-0.14727 16.32679,-2.36466 26.73589,-7.73096 33.09823,-17.06305 7.68798,-11.27651 8.62523,-27.17451 2.36989,-40.20684 -2.40194,-5.0042 -8.75619,-11.1158 -14.38569,-13.83637 l -4.57543,-2.21123 2.3952,-1.65985 c 6.38198,-4.42272 10.17669,-10.22314 11.85561,-18.12241 1.65064,-7.76617 0.1151,-17.85476 -3.71089,-24.38146 -4.09784,-6.99043 -13.43853,-13.17918 -24.54372,-16.26205 -4.89093,-1.35775 -5.93408,-1.39474 -45.21481,-1.60456 z m 209.80063,0.21394 -28.00449,0.22686 -6.25802,1.69137 c -14.95828,4.04268 -26.50859,12.1099 -34.78134,24.29206 -12.88305,18.97113 -14.67718,47.34061 -4.32893,68.45215 5.48077,11.18135 12.80161,19.04844 22.56606,24.24968 2.4231,1.29071 4.64565,2.34715 4.93872,2.34715 0.84878,0 12.74357,-4.22087 19.66443,-6.97787 8.19559,-3.26479 20.66802,-9.62871 26.87071,-13.71028 5.13008,-3.37577 6.07436,-4.70855 1.78594,-2.52077 -5.40478,2.75732 -11.85969,4.09441 -19.81894,4.10621 -8.24068,0.0122 -11.29375,-0.70874 -18.14153,-4.28501 -15.46822,-8.07831 -22.41381,-31.90525 -14.89057,-51.08267 3.66173,-9.33407 9.7971,-16.02357 18.65571,-20.33985 7.16274,-3.48998 11.31516,-4.1668 28.45666,-4.63899 14.91452,-0.41084 15.41763,-0.46663 18.46141,-2.05672 3.45132,-1.80299 5.62842,-3.90824 7.96075,-7.69669 1.62236,-2.6352 4.86792,-10.3476 4.86792,-11.56777 0,-0.53024 -7.26645,-0.65711 -28.00449,-0.48886 z m -298.30789,0.1664 -24.86463,57.8869 c -13.67544,31.83765 -25.05481,58.8225 -25.28786,59.96637 -0.36671,1.7999 -0.13962,2.37677 1.68827,4.28708 2.74626,2.87009 7.86063,6.34653 13.54336,9.20615 l 4.54752,2.28875 0.64286,-1.69137 c 1.61079,-4.2367 8.31243,-20.0828 9.36945,-22.15472 2.18899,-4.29078 6.19424,-6.78333 13.07724,-8.13748 4.74625,-0.93376 9.4649,-0.1532 18.98282,3.13934 3.86761,1.33793 16.00481,5.53744 26.97148,9.33276 10.96667,3.79532 20.11666,7.07767 20.33312,7.29413 0.21645,0.21645 1.52232,2.6963 2.90215,5.51026 2.71972,5.54646 4.12713,6.76074 9.571,8.25944 4.06185,1.11824 21.67404,1.23619 21.22454,0.14211 -0.41402,-1.0077 -10.75651,-24.49677 -17.01498,-38.64312 -4.48894,-10.14658 -7.61157,-17.23295 -22.05912,-50.06412 -2.95353,-6.71172 -8.79837,-19.94744 -12.98887,-29.41268 l -7.61918,-17.2098 h -16.50958 z m 16.52354,30.66738 c 1.44801,-0.0105 2.88687,0.40929 3.71605,1.26297 0.66104,0.68056 1.96078,3.06786 2.8882,5.3051 1.76008,4.24591 20.29828,47.19881 27.45414,63.61111 2.27314,5.21353 4.13308,9.64876 4.13308,9.85624 0,0.88456 -1.38571,-0.0503 -9.46764,-6.38875 -4.69068,-3.6788 -17.29263,-13.41192 -28.00449,-21.62918 -10.71185,-8.21725 -19.47582,-15.1815 -19.47582,-15.47605 0,-0.29455 1.11416,-3.28695 2.47634,-6.64973 7.99942,-19.74789 11.36124,-27.42641 12.50931,-28.57448 0.86595,-0.86596 2.32282,-1.30675 3.77083,-1.31723 z m 107.02964,44.11617 h 20.93309 c 13.00724,0 22.18962,0.26422 24.2502,0.69815 10.56916,2.2257 16.77055,9.25709 16.77055,19.01434 0,9.40118 -5.61066,16.07065 -15.86414,18.85776 -3.2526,0.88413 -35.47359,1.68781 -42.80463,1.06764 l -3.28507,-0.27802 v -19.67994 z m -163.73781,74.94013 c -0.0703,0.0703 -0.11899,0.13146 -0.25528,0.31471 -0.0403,0.0542 0.0905,-0.1006 0.13178,-0.154 0.0414,-0.0535 0.0824,-0.10705 0.1235,-0.16071 z m 203.0765,6.83265 c -0.24659,0.0328 -0.49309,0.0657 -0.74001,0.0982 0.096,0.0126 0.19178,0.0249 0.28784,0.0372 0.15073,-0.0451 0.30146,-0.0901 0.45217,-0.1354 z"
       transform="translate(10.026243)" /><path
       d="m 177.28825,383.60672 q 0.29279,0 0.51238,0.17079 0.21959,0.1464 0.29278,0.41478 l 5.41654,16.2496 h -2.22029 l -4.36739,-13.80972 q -0.0976,-0.34158 -0.21959,-0.68316 -0.0976,-0.36598 -0.19519,-0.68317 h -0.68316 q -0.0976,0.31719 -0.1952,0.68317 -0.0976,0.34158 -0.21958,0.68316 l -4.36739,13.80972 h -2.22029 l 5.41653,-16.2496 q 0.0732,-0.26838 0.29279,-0.41478 0.21959,-0.17079 0.51237,-0.17079 z m 3.12305,9.71072 v 1.85431 h -8.53958 v -1.85431 z m 12.51846,-10.0035 q 1.07355,0 1.82991,0.0488 0.78076,0.0488 1.41513,0.1708 0.65877,0.0976 1.34194,0.26838 l -0.21959,1.63472 q -0.73197,-0.0732 -1.36634,-0.12199 -0.60997,-0.0488 -1.31753,-0.0732 -0.70757,-0.0244 -1.68352,-0.0244 -1.63472,0 -2.58627,0.63437 -0.95155,0.63437 -1.36633,2.1227 -0.39039,1.48832 -0.39039,4.0502 0,2.56187 0.39039,4.0502 0.41478,1.48833 1.36633,2.12269 0.95155,0.63437 2.58627,0.63437 1.56152,0 2.61067,-0.0488 1.07355,-0.0732 2.0983,-0.21959 l 0.21959,1.61032 q -1.04915,0.29278 -2.17149,0.41478 -1.09795,0.14639 -2.75707,0.14639 -2.41548,0 -3.87941,-0.82956 -1.43953,-0.85396 -2.09829,-2.75706 -0.63437,-1.90311 -0.63437,-5.12375 0,-3.22064 0.63437,-5.12375 0.65876,-1.90311 2.09829,-2.73266 1.46393,-0.85396 3.87941,-0.85396 z m 15.6903,0.29278 q 0.29279,0 0.51238,0.17079 0.21959,0.1464 0.29278,0.41478 l 5.41654,16.2496 h -2.2203 l -4.36738,-13.80972 q -0.0976,-0.34158 -0.21959,-0.68316 -0.0976,-0.36598 -0.19519,-0.68317 h -0.68317 q -0.0976,0.31719 -0.19519,0.68317 -0.0976,0.34158 -0.21959,0.68316 l -4.36738,13.80972 h -2.22029 l 5.41653,-16.2496 q 0.0732,-0.26838 0.29279,-0.41478 0.21959,-0.17079 0.51237,-0.17079 z m 3.12305,9.71072 v 1.85431 h -8.53958 v -1.85431 z m 12.64045,-9.93031 q 1.80551,0 3.04985,0.43918 1.26873,0.43918 2.0251,1.43953 0.78076,1.00035 1.12234,2.65947 0.36598,1.65912 0.36598,4.099 0,2.43988 -0.36598,4.099 -0.34158,1.65912 -1.12234,2.65947 -0.75637,1.00035 -2.0251,1.43953 -1.24434,0.43917 -3.04985,0.43917 -1.73232,0 -3.22065,-0.0732 -1.46392,-0.0488 -2.78146,-0.1464 l 0.92716,-1.75671 q 1.02474,0.0244 2.26908,0.0732 1.26874,0.0244 2.80587,0.0244 1.61032,0 2.56187,-0.60997 0.95155,-0.63437 1.34193,-2.0983 0.41478,-1.48833 0.41478,-4.0502 0,-2.56188 -0.41478,-4.0258 -0.39038,-1.48833 -1.34193,-2.1227 -0.95155,-0.63437 -2.56187,-0.63437 -1.51273,0 -2.73267,0.0244 -1.19554,0.0244 -2.34228,0.0488 l -0.92716,-1.70792 q 1.31754,-0.0976 2.78146,-0.14639 1.48833,-0.0732 3.22065,-0.0732 z m -3.85501,0.21959 v 16.83517 h -2.1471 v -16.83517 z m 18.32536,-0.0244 q 1.21994,0 2.43988,0 1.24434,0 2.43988,0.0488 1.21994,0.0244 2.34229,0.0976 l -0.0976,1.68351 h -6.75847 q -0.75636,0 -1.12234,0.39038 -0.34158,0.36599 -0.34158,1.21994 v 10.00351 q 0,0.85396 0.34158,1.24434 0.36598,0.39038 1.12234,0.39038 h 6.75847 l 0.0976,1.65912 q -1.12235,0.0732 -2.34229,0.0976 -1.19554,0.0244 -2.43988,0.0244 -1.21994,0.0244 -2.43988,0.0244 -1.48832,0 -2.36668,-0.78076 -0.85396,-0.80516 -0.87836,-2.14709 v -11.02826 q 0.0244,-1.36633 0.87836,-2.14709 0.87836,-0.78077 2.36668,-0.78077 z m -2.80586,7.10005 h 8.97876 v 1.73232 h -8.97876 z m 30.45157,-7.07565 q 0.87835,0 0.87835,0.90276 l 0.70757,15.93241 h -2.1471 l -0.60997,-15.05406 h -0.51237 l -3.75742,12.41899 q -0.19519,0.73197 -0.92715,0.73197 h -1.92751 q -0.75636,0 -0.97595,-0.73197 l -3.75741,-12.41899 h -0.48798 l -0.58557,15.05406 h -2.14709 l 0.65876,-15.93241 q 0.0488,-0.90276 0.90276,-0.90276 h 2.43988 q 0.68317,0 0.90275,0.73197 l 3.14745,10.27189 q 0.19519,0.56117 0.31718,1.12235 0.1464,0.56117 0.31719,1.14674 h 0.43918 q 0.17079,-0.58557 0.31718,-1.14674 0.14639,-0.56118 0.31719,-1.17115 l 3.14744,-10.22309 q 0.19519,-0.73197 0.92716,-0.73197 z m 8.80986,0 v 16.83517 h -2.1471 v -16.83517 z m 12.00606,0 q 0.29279,0 0.51238,0.17079 0.21959,0.1464 0.29278,0.41478 l 5.41654,16.2496 h -2.22029 l -4.36739,-13.80972 q -0.0976,-0.34158 -0.21959,-0.68316 -0.0976,-0.36598 -0.19519,-0.68317 h -0.68316 q -0.0976,0.31719 -0.1952,0.68317 -0.0976,0.34158 -0.21958,0.68316 l -4.36739,13.80972 h -2.22029 l 5.41653,-16.2496 q 0.0732,-0.26838 0.29279,-0.41478 0.21959,-0.17079 0.51237,-0.17079 z m 3.12305,9.71072 v 1.85431 h -8.53958 v -1.85431 z m 18.13204,-9.90591 q 2.0739,0 3.29384,0.39038 1.21994,0.36599 1.75671,1.31754 0.56118,0.95155 0.56118,2.68387 0,1.80551 -0.68317,2.75706 -0.65877,0.95155 -2.17149,1.09795 v 0.0976 q 1.8787,0.17079 2.61067,1.31754 0.75636,1.14674 0.75636,3.17184 0,1.73232 -0.53677,2.68387 -0.53678,0.95155 -1.73232,1.34193 -1.17114,0.36598 -3.09864,0.36598 -1.43953,0 -2.48868,-0.0244 -1.02475,0 -1.90311,-0.0488 -0.87836,-0.0488 -1.82991,-0.122 l 0.34158,-1.70791 q 0.53678,0.0244 2.0251,0.0488 1.51273,0.0244 3.51343,0.0244 1.34194,0 2.0983,-0.21958 0.78076,-0.24399 1.09794,-0.87836 0.34159,-0.63437 0.34159,-1.82991 0,-1.31754 -0.34159,-2.0251 -0.34158,-0.70757 -1.14674,-1.00035 -0.80516,-0.29279 -2.19589,-0.31719 h -5.41653 v -1.63472 h 5.39213 q 1.21994,-0.0244 1.92751,-0.24398 0.73196,-0.24399 1.04914,-0.85396 0.31719,-0.63437 0.31719,-1.75672 0,-1.14674 -0.34158,-1.75671 -0.34159,-0.60997 -1.14675,-0.82956 -0.78076,-0.21959 -2.14709,-0.21959 -1.19554,0 -2.1471,0 -0.95155,0 -1.68351,0.0244 -0.70757,0 -1.19555,0.0488 l -0.34158,-1.70792 q 0.85396,-0.0976 1.61032,-0.12199 0.78076,-0.0488 1.68352,-0.0488 0.92715,-0.0244 2.17149,-0.0244 z m -3.36703,0.19519 v 16.83517 h -2.0983 v -16.83517 z m 17.30064,-0.0244 q 1.21994,0 2.43988,0 1.24434,0 2.43988,0.0488 1.21994,0.0244 2.34229,0.0976 l -0.0976,1.68351 h -6.75847 q -0.75636,0 -1.12234,0.39038 -0.34158,0.36599 -0.34158,1.21994 v 10.00351 q 0,0.85396 0.34158,1.24434 0.36598,0.39038 1.12234,0.39038 h 6.75847 l 0.0976,1.65912 q -1.12235,0.0732 -2.34229,0.0976 -1.19554,0.0244 -2.43988,0.0244 -1.21994,0.0244 -2.43988,0.0244 -1.48833,0 -2.36668,-0.78076 -0.85396,-0.80516 -0.87836,-2.14709 v -11.02826 q 0.0244,-1.36633 0.87836,-2.14709 0.87835,-0.78077 2.36668,-0.78077 z m -2.80586,7.10005 h 8.97876 v 1.73232 h -8.97876 z m 20.35048,-7.29524 q 1.9519,0 3.14744,0.43918 1.19554,0.41478 1.73232,1.46393 0.56117,1.04915 0.56117,2.95225 0,1.36634 -0.31718,2.29349 -0.31719,0.90276 -1.00035,1.41513 -0.65877,0.48798 -1.78112,0.63437 v 0.12199 q 0.41478,0.0976 0.80516,0.41478 0.41478,0.29279 0.75637,0.80516 0.34158,0.48798 0.51237,1.19555 l 1.63472,5.31893 h -2.29349 l -1.48832,-5.27014 q -0.31719,-0.95155 -0.85396,-1.34193 -0.53678,-0.41478 -1.39073,-0.41478 -1.48833,0 -2.58628,0 -1.09794,-0.0244 -1.82991,-0.0488 -0.73196,-0.0244 -1.17114,-0.0244 l 0.0732,-1.78111 h 5.44093 q 1.24434,-0.0244 1.9519,-0.29278 0.73197,-0.26839 1.04915,-0.95156 0.31719,-0.70756 0.31719,-1.9519 0,-1.24434 -0.31719,-1.90311 -0.31718,-0.68316 -1.04915,-0.95155 -0.70756,-0.26839 -1.9519,-0.26839 -2.0007,0 -3.46463,0.0244 -1.43953,0.0244 -1.9519,0.0244 l -0.34159,-1.68352 q 0.92716,-0.0976 1.73232,-0.14639 0.80516,-0.0488 1.75671,-0.0488 0.97595,-0.0244 2.31789,-0.0244 z m -3.68422,0.21959 v 16.83517 h -2.1227 v -16.83517 z m 20.10647,-0.29278 q 1.07355,0 1.82991,0.0488 0.78077,0.0488 1.41513,0.1708 0.65877,0.0976 1.34194,0.26838 l -0.21959,1.63472 q -0.73196,-0.0732 -1.36633,-0.12199 -0.60997,-0.0488 -1.31754,-0.0732 -0.70756,-0.0244 -1.68352,-0.0244 -1.63472,0 -2.58627,0.63437 -0.95155,0.63437 -1.36633,2.1227 -0.39038,1.48832 -0.39038,4.0502 0,2.56187 0.39038,4.0502 0.41478,1.48833 1.36633,2.12269 0.95155,0.63437 2.58627,0.63437 1.56153,0 2.61068,-0.0488 1.07354,-0.0732 2.09829,-0.21959 l 0.21959,1.61032 q -1.04915,0.29278 -2.17149,0.41478 -1.09795,0.14639 -2.75707,0.14639 -2.41548,0 -3.8794,-0.82956 -1.43953,-0.85396 -2.0983,-2.75706 -0.63437,-1.90311 -0.63437,-5.12375 0,-3.22064 0.63437,-5.12375 0.65877,-1.90311 2.0983,-2.73266 1.46392,-0.85396 3.8794,-0.85396 z m -1.24433,18.46989 q 0.95155,-0.0976 1.53712,0 0.60997,0.12199 0.90276,0.48797 0.29278,0.36599 0.26838,1.09795 -0.0244,1.02475 -0.56117,1.73232 -0.53677,0.73196 -1.43953,1.04914 -0.90275,0.31719 -2.0739,0.1708 l 0.31719,-1.09795 q 1.00035,0.0244 1.61032,-0.46358 0.63437,-0.46358 0.65877,-1.21994 0.0244,-0.43918 -0.26839,-0.60997 -0.29279,-0.14639 -1.17114,-0.17079 z m 16.10508,-18.49429 q 1.82991,0 3.09865,0.43918 1.29314,0.43918 2.0495,1.46392 0.78076,1.00036 1.12234,2.68387 0.36599,1.68352 0.36599,4.1478 0,2.46428 -0.36599,4.14779 -0.34158,1.68352 -1.12234,2.70827 -0.75636,1.00035 -2.0495,1.43953 -1.26874,0.43918 -3.09865,0.43918 -1.82991,0 -3.12304,-0.43918 -1.26874,-0.43918 -2.0495,-1.43953 -0.78076,-1.02475 -1.14675,-2.70827 -0.34158,-1.68351 -0.34158,-4.14779 0,-2.46428 0.34158,-4.1478 0.36599,-1.68351 1.14675,-2.68387 0.78076,-1.02474 2.0495,-1.46392 1.29313,-0.43918 3.12304,-0.43918 z m 0,1.9275 q -1.65912,0 -2.63507,0.63437 -0.95155,0.63437 -1.36633,2.1227 -0.39038,1.46393 -0.39038,4.0502 0,2.56187 0.39038,4.0502 0.41478,1.48833 1.36633,2.12269 0.97595,0.63437 2.63507,0.63437 1.65912,0 2.61067,-0.63437 0.97596,-0.63436 1.36634,-2.12269 0.41478,-1.48833 0.41478,-4.0502 0,-2.58627 -0.41478,-4.0502 -0.39038,-1.48833 -1.36634,-2.1227 -0.95155,-0.63437 -2.61067,-0.63437 z m 24.06095,-1.82991 q 1.80551,0 3.04985,0.43918 1.26873,0.43918 2.0251,1.43953 0.78076,1.00035 1.12234,2.65947 0.36598,1.65912 0.36598,4.099 0,2.43988 -0.36598,4.099 -0.34158,1.65912 -1.12234,2.65947 -0.75637,1.00035 -2.0251,1.43953 -1.24434,0.43917 -3.04985,0.43917 -1.73232,0 -3.22065,-0.0732 -1.46392,-0.0488 -2.78146,-0.1464 l 0.92716,-1.75671 q 1.02475,0.0244 2.26908,0.0732 1.26874,0.0244 2.80587,0.0244 1.61032,0 2.56187,-0.60997 0.95155,-0.63437 1.34193,-2.0983 0.41478,-1.48833 0.41478,-4.0502 0,-2.56188 -0.41478,-4.0258 -0.39038,-1.48833 -1.34193,-2.1227 -0.95155,-0.63437 -2.56187,-0.63437 -1.51273,0 -2.73267,0.0244 -1.19554,0.0244 -2.34228,0.0488 l -0.92716,-1.70792 q 1.31754,-0.0976 2.78146,-0.14639 1.48833,-0.0732 3.22065,-0.0732 z m -3.85501,0.21959 v 16.83517 h -2.1471 v -16.83517 z m 21.25321,-0.31718 q 1.82991,0 3.09865,0.43918 1.29314,0.43918 2.0495,1.46392 0.78076,1.00036 1.12235,2.68387 0.36598,1.68352 0.36598,4.1478 0,2.46428 -0.36598,4.14779 -0.34159,1.68352 -1.12235,2.70827 -0.75636,1.00035 -2.0495,1.43953 -1.26874,0.43918 -3.09865,0.43918 -1.82991,0 -3.12304,-0.43918 -1.26874,-0.43918 -2.0495,-1.43953 -0.78076,-1.02475 -1.14674,-2.70827 -0.34159,-1.68351 -0.34159,-4.14779 0,-2.46428 0.34159,-4.1478 0.36598,-1.68351 1.14674,-2.68387 0.78076,-1.02474 2.0495,-1.46392 1.29313,-0.43918 3.12304,-0.43918 z m 0,1.9275 q -1.65911,0 -2.63507,0.63437 -0.95155,0.63437 -1.36633,2.1227 -0.39038,1.46393 -0.39038,4.0502 0,2.56187 0.39038,4.0502 0.41478,1.48833 1.36633,2.12269 0.97596,0.63437 2.63507,0.63437 1.65912,0 2.61068,-0.63437 0.97595,-0.63436 1.36633,-2.12269 0.41478,-1.48833 0.41478,-4.0502 0,-2.58627 -0.41478,-4.0502 -0.39038,-1.48833 -1.36633,-2.1227 -0.95156,-0.63437 -2.61068,-0.63437 z m 24.03657,-1.9031 q 1.07354,0 1.82991,0.0488 0.78076,0.0488 1.41513,0.1708 0.65876,0.0976 1.34193,0.26838 l -0.21959,1.63472 q -0.73196,-0.0732 -1.36633,-0.12199 -0.60997,-0.0488 -1.31754,-0.0732 -0.70756,-0.0244 -1.68351,-0.0244 -1.63472,0 -2.58628,0.63437 -0.95155,0.63437 -1.36633,2.1227 -0.39038,1.48832 -0.39038,4.0502 0,2.56187 0.39038,4.0502 0.41478,1.48833 1.36633,2.12269 0.95156,0.63437 2.58628,0.63437 1.56152,0 2.61067,-0.0488 1.07354,-0.0732 2.09829,-0.21959 l 0.21959,1.61032 q -1.04915,0.29278 -2.17149,0.41478 -1.09795,0.14639 -2.75706,0.14639 -2.41549,0 -3.87941,-0.82956 -1.43953,-0.85396 -2.0983,-2.75706 -0.63437,-1.90311 -0.63437,-5.12375 0,-3.22064 0.63437,-5.12375 0.65877,-1.90311 2.0983,-2.73266 1.46392,-0.85396 3.87941,-0.85396 z m 14.86074,-0.0244 q 1.82991,0 3.09865,0.43918 1.29314,0.43918 2.0495,1.46392 0.78076,1.00036 1.12234,2.68387 0.36599,1.68352 0.36599,4.1478 0,2.46428 -0.36599,4.14779 -0.34158,1.68352 -1.12234,2.70827 -0.75636,1.00035 -2.0495,1.43953 -1.26874,0.43918 -3.09865,0.43918 -1.82991,0 -3.12304,-0.43918 -1.26874,-0.43918 -2.0495,-1.43953 -0.78076,-1.02475 -1.14675,-2.70827 -0.34158,-1.68351 -0.34158,-4.14779 0,-2.46428 0.34158,-4.1478 0.36599,-1.68351 1.14675,-2.68387 0.78076,-1.02474 2.0495,-1.46392 1.29313,-0.43918 3.12304,-0.43918 z m 0,1.9275 q -1.65912,0 -2.63507,0.63437 -0.95155,0.63437 -1.36633,2.1227 -0.39038,1.46393 -0.39038,4.0502 0,2.56187 0.39038,4.0502 0.41478,1.48833 1.36633,2.12269 0.97595,0.63437 2.63507,0.63437 1.65912,0 2.61067,-0.63437 0.97596,-0.63436 1.36634,-2.12269 0.41478,-1.48833 0.41478,-4.0502 0,-2.58627 -0.41478,-4.0502 -0.39038,-1.48833 -1.36634,-2.1227 -0.95155,-0.63437 -2.61067,-0.63437 z m 24.40064,-1.61032 v 15.98122 q 0,0.85395 -0.82956,0.85395 h -2.0983 q -0.36598,0 -0.58557,-0.17079 -0.21959,-0.17079 -0.36598,-0.51237 l -5.68492,-11.93102 q -0.21959,-0.48797 -0.51238,-1.09794 -0.29278,-0.60997 -0.43918,-1.12235 h -0.39038 q 0.0488,0.53678 0.0732,1.09795 0.0244,0.56117 0.0244,1.12234 v 12.61418 h -2.1471 v -15.98121 q 0,-0.85396 0.85396,-0.85396 h 2.0251 q 0.36598,0 0.58557,0.17079 0.21959,0.1708 0.36599,0.51238 l 5.51412,11.63823 q 0.26839,0.51237 0.56118,1.17114 0.31718,0.63437 0.58557,1.26874 h 0.41478 q -0.0244,-0.65877 -0.0488,-1.29314 -0.0244,-0.63437 -0.0244,-1.26874 v -12.1994 z m 7.5655,0 v 16.83517 h -2.14709 v -16.83517 z m 8.02721,6.90486 v 1.85431 h -8.2224 v -1.85431 z m 1.87871,-6.90486 v 16.83517 h -2.1471 v -16.83517 z m 8.51704,-0.0244 q 1.21994,0 2.43988,0 1.24434,0 2.43988,0.0488 1.21994,0.0244 2.34229,0.0976 l -0.0976,1.68351 h -6.75847 q -0.75636,0 -1.12234,0.39038 -0.34158,0.36599 -0.34158,1.21994 v 10.00351 q 0,0.85396 0.34158,1.24434 0.36598,0.39038 1.12234,0.39038 h 6.75847 l 0.0976,1.65912 q -1.12235,0.0732 -2.34229,0.0976 -1.19554,0.0244 -2.43988,0.0244 -1.21994,0.0244 -2.43988,0.0244 -1.48832,0 -2.36668,-0.78076 -0.85396,-0.80516 -0.87836,-2.14709 v -11.02826 q 0.0244,-1.36633 0.87836,-2.14709 0.87836,-0.78077 2.36668,-0.78077 z m -2.80586,7.10005 h 8.97876 v 1.73232 h -8.97876 z m 20.37486,-7.36843 q 1.07355,0 1.82991,0.0488 0.78076,0.0488 1.41513,0.1708 0.65877,0.0976 1.34194,0.26838 l -0.21959,1.63472 q -0.73197,-0.0732 -1.36633,-0.12199 -0.60997,-0.0488 -1.31754,-0.0732 -0.70757,-0.0244 -1.68352,-0.0244 -1.63472,0 -2.58627,0.63437 -0.95155,0.63437 -1.36633,2.1227 -0.39038,1.48832 -0.39038,4.0502 0,2.56187 0.39038,4.0502 0.41478,1.48833 1.36633,2.12269 0.95155,0.63437 2.58627,0.63437 1.56153,0 2.61067,-0.0488 1.07355,-0.0732 2.0983,-0.21959 l 0.21959,1.61032 q -1.04915,0.29278 -2.17149,0.41478 -1.09795,0.14639 -2.75707,0.14639 -2.41548,0 -3.87941,-0.82956 -1.43953,-0.85396 -2.09829,-2.75706 -0.63437,-1.90311 -0.63437,-5.12375 0,-3.22064 0.63437,-5.12375 0.65876,-1.90311 2.09829,-2.73266 1.46393,-0.85396 3.87941,-0.85396 z m 11.24971,0.29278 v 16.83517 h -2.14709 v -16.83517 z m 21.32642,0 q 0.87835,0 0.87835,0.90276 l 0.70757,15.93241 h -2.1471 l -0.60997,-15.05406 h -0.51237 l -3.75742,12.41899 q -0.19519,0.73197 -0.92715,0.73197 h -1.9275 q -0.75637,0 -0.97596,-0.73197 l -3.75741,-12.41899 h -0.48798 l -0.58557,15.05406 h -2.14709 l 0.65876,-15.93241 q 0.0488,-0.90276 0.90276,-0.90276 h 2.43988 q 0.68317,0 0.90276,0.73197 l 3.14744,10.27189 q 0.19519,0.56117 0.31718,1.12235 0.1464,0.56117 0.31719,1.14674 h 0.43918 q 0.17079,-0.58557 0.31718,-1.14674 0.14639,-0.56118 0.31719,-1.17115 l 3.14744,-10.22309 q 0.19519,-0.73197 0.92716,-0.73197 z m 9.7614,-0.0244 q 1.21994,0 2.43988,0 1.24434,0 2.43988,0.0488 1.21994,0.0244 2.34228,0.0976 l -0.0976,1.68351 h -6.75847 q -0.75636,0 -1.12235,0.39038 -0.34158,0.36599 -0.34158,1.21994 v 10.00351 q 0,0.85396 0.34158,1.24434 0.36599,0.39038 1.12235,0.39038 h 6.75847 l 0.0976,1.65912 q -1.12234,0.0732 -2.34228,0.0976 -1.19554,0.0244 -2.43988,0.0244 -1.21994,0.0244 -2.43988,0.0244 -1.48833,0 -2.36669,-0.78076 -0.85395,-0.80516 -0.87835,-2.14709 v -11.02826 q 0.0244,-1.36633 0.87835,-2.14709 0.87836,-0.78077 2.36669,-0.78077 z m -2.80586,7.10005 h 8.97875 v 1.73232 h -8.97875 z m 27.49931,-7.07565 v 15.98122 q 0,0.85395 -0.82956,0.85395 h -2.0983 q -0.36598,0 -0.58557,-0.17079 -0.21959,-0.17079 -0.36598,-0.51237 l -5.68492,-11.93102 q -0.21959,-0.48797 -0.51238,-1.09794 -0.29278,-0.60997 -0.43918,-1.12235 h -0.39038 q 0.0488,0.53678 0.0732,1.09795 0.0244,0.56117 0.0244,1.12234 v 12.61418 h -2.1471 v -15.98121 q 0,-0.85396 0.85396,-0.85396 h 2.0251 q 0.36598,0 0.58557,0.17079 0.21959,0.1708 0.36599,0.51238 l 5.51412,11.63823 q 0.26839,0.51237 0.56118,1.17114 0.31718,0.63437 0.58557,1.26874 h 0.41478 q -0.0244,-0.65877 -0.0488,-1.29314 -0.0244,-0.63437 -0.0244,-1.26874 v -12.1994 z m 11.44491,0 v 16.83517 h -2.14709 v -16.83517 z m 5.44094,0 v 1.90311 h -13.00456 v -1.90311 z m 9.5662,-0.31718 q 1.82991,0 3.09865,0.43918 1.29314,0.43918 2.0495,1.46392 0.78076,1.00036 1.12235,2.68387 0.36598,1.68352 0.36598,4.1478 0,2.46428 -0.36598,4.14779 -0.34159,1.68352 -1.12235,2.70827 -0.75636,1.00035 -2.0495,1.43953 -1.26874,0.43918 -3.09865,0.43918 -1.82991,0 -3.12304,-0.43918 -1.26874,-0.43918 -2.0495,-1.43953 -0.78076,-1.02475 -1.14674,-2.70827 -0.34159,-1.68351 -0.34159,-4.14779 0,-2.46428 0.34159,-4.1478 0.36598,-1.68351 1.14674,-2.68387 0.78076,-1.02474 2.0495,-1.46392 1.29313,-0.43918 3.12304,-0.43918 z m 0,1.9275 q -1.65911,0 -2.63507,0.63437 -0.95155,0.63437 -1.36633,2.1227 -0.39038,1.46393 -0.39038,4.0502 0,2.56187 0.39038,4.0502 0.41478,1.48833 1.36633,2.12269 0.97596,0.63437 2.63507,0.63437 1.65912,0 2.61068,-0.63437 0.97595,-0.63436 1.36633,-2.12269 0.41478,-1.48833 0.41478,-4.0502 0,-2.58627 -0.41478,-4.0502 -0.39038,-1.48833 -1.36633,-2.1227 -0.95156,-0.63437 -2.61068,-0.63437 z"
       id="text33"
       style="font-size:24.3988px;line-height:2.2;font-family:'Exo 2';-inkscape-font-specification:'Exo 2, ';letter-spacing:1.17302px;display:inline;fill:#ffffff;fill-opacity:1;stroke-width:0.469208;stroke-linecap:round;stroke-linejoin:round"
       aria-label="ACADEMIA BERÇO DO CONHECIMENTO" /><path
       id="path3"
       style="display:inline;fill:#ffffff;fill-opacity:1"
       d="m 605.69514,151.49123 c -0.002,-2e-5 -0.004,1.7e-4 -0.006,4.6e-4 -0.005,7.4e-4 -0.01,0.003 -0.0142,0.006 -0.23454,0.14495 -0.77184,2.0303 -1.1941,4.18987 -1.29236,6.60945 -4.36181,15.35372 -6.12536,17.44958 -2.32647,2.76486 -6.6179,4.58441 -16.26556,6.89653 l -8.28444,1.98497 9.36124,2.35245 c 5.14853,1.29353 10.56581,3.01119 12.03856,3.81689 3.94098,2.156 5.66393,6.04779 9.92943,22.42895 l 0.73359,2.81571 1.77603,-6.96251 c 4.07782,-15.98771 5.5114,-17.81604 16.29717,-20.78168 3.90983,-1.07504 8.60683,-2.26991 10.43758,-2.65488 1.83075,-0.38497 3.23892,-0.78337 3.12912,-0.88526 -0.1098,-0.10189 -4.14209,-1.21924 -8.96076,-2.48258 -4.81867,-1.26333 -9.91883,-2.80844 -11.33293,-3.43384 -4.606,-2.03707 -6.5909,-5.92177 -9.67465,-18.93051 -0.76955,-3.24636 -1.58463,-5.80675 -1.8443,-5.81011 z m -282.22703,37.78038 0.29555,0.39223 c 0.17536,-0.12677 0.35364,-0.25587 0.53473,-0.38765 z m 281.65335,33.54789 -1.89195,4.9528 c -1.04034,2.72395 -3.2988,7.74326 -5.01878,11.15468 -14.66623,29.08905 -41.45063,53.47135 -79.49221,72.36291 -44.54132,22.11937 -98.71731,35.08396 -162.39534,38.86221 -13.79806,0.819 -49.17489,0.82325 -61.96519,0.005 -58.90562,-3.76122 -99.71186,-15.53166 -116.85745,-33.70689 -7.06976,-7.49431 -10.17619,-16.46347 -8.59832,-24.82585 1.40474,-7.44485 5.37646,-14.31728 12.76712,-22.09033 l 3.18411,-3.34906 -3.12866,1.56479 c -6.08868,3.04456 -14.86574,9.30242 -18.98367,13.53554 -13.23086,13.601 -15.31686,29.7202 -5.7061,44.08948 10.57865,15.8164 35.97618,28.49509 72.14939,36.01765 19.61109,4.07831 35.41288,5.9426 65.81049,7.76437 8.22857,0.49315 45.22584,0.34148 55.1571,-0.22589 116.12421,-6.63416 200.37725,-39.81365 237.535,-93.54415 9.93178,-14.36145 16.14069,-31.28851 17.06697,-46.52671 z" /></g></svg>
